<?xml version="1.0" encoding="utf-8"?>
<!-- Generator: Adobe Illustrator 18.0.0, SVG Export Plug-In . SVG Version: 6.00 Build 0)  -->
<!DOCTYPE svg PUBLIC "-//W3C//DTD SVG 1.1//EN" "http://www.w3.org/Graphics/SVG/1.1/DTD/svg11.dtd">
<svg version="1.1" id="Layer_1" xmlns="http://www.w3.org/2000/svg" xmlns:xlink="http://www.w3.org/1999/xlink" x="0px" y="0px"
	 viewBox="0 0 1920 1080" enable-background="new 0 0 1920 1080" xml:space="preserve">
<g>
	<linearGradient id="SVGID_1_" gradientUnits="userSpaceOnUse" x1="449.8744" y1="522.4573" x2="1122.6932" y2="522.4573">
		<stop  offset="0" style="stop-color:#036634"/>
		<stop  offset="0.2075" style="stop-color:#1A7536"/>
		<stop  offset="0.64" style="stop-color:#559B3A"/>
		<stop  offset="0.9947" style="stop-color:#89BD3E"/>
	</linearGradient>
	<path fill="url(#SVGID_1_)" d="M1122.7,298.6c-71.7-72.3-179.7-121-279.4-128.3c-193.5-14.1-388.8,140.9-393.3,345.9
		c-1.8,82.2,31.1,167.9,83.7,229.9c55.3,65.2,146.9,110,229.4,123.8c79.7,13.3,162.6,3.1,234.5-35.3
		c-121.4,19.8-251.7-47.1-308.3-158.5c-36.9-72.6-40.7-160.5-15.1-237.6c28.2-85.2,82.1-148.6,165.6-178.1
		c27.1-9.6,55.4-15.5,84-17.3c34.4-2.2,69.1,1.6,102.4,10.8C1061.6,263.8,1090.4,282.3,1122.7,298.6z"/>
	<linearGradient id="SVGID_2_" gradientUnits="userSpaceOnUse" x1="500.9677" y1="523.03" x2="1470.1256" y2="523.03">
		<stop  offset="0" style="stop-color:#58A244"/>
		<stop  offset="7.482704e-002" style="stop-color:#5AA445"/>
		<stop  offset="0.5294" style="stop-color:#5CA546"/>
		<stop  offset="0.6766" style="stop-color:#60A845"/>
		<stop  offset="0.8097" style="stop-color:#6BB141"/>
		<stop  offset="0.937" style="stop-color:#7DC03A"/>
		<stop  offset="1" style="stop-color:#89CA36"/>
	</linearGradient>
	<path fill="url(#SVGID_2_)" d="M1468.4,411.1c-2.2-21.8-6.6-43.4-13.2-64.2c-3.3-10.4-7.2-20.7-11.6-30.7
		c-1.1-2.4-7.1-14.4-7.1-14.4s-10,16.6-12.8,20.6c-6,8.8-12.6,17.2-19.7,25.2c-13.7,15.4-29.5,28.9-47,39.8
		c-20.7,12.9-43.5,22-67.1,27.8c-60.2,14.8-112.8,42.8-146.2,98.4c-1.2,2-2.2,3.3-5.2,2.5c-2.9-5.6-5.9-11.5-9.1-17.4
		c-49.9-93.7-123.3-148-234-142.9c-35.6,1.7-71.3,3-106.9,4.9c-65.6,3.5-130.8,10.8-195.3-6.7c-17.7-4.8-35.2-10.5-51.7-18.4
		c-8.3-4-16.3-8.5-23.8-13.7c-3.7-2.6-16.8-11.2-16.8-11.2c2.1,63.5,7.6,125.6,29.3,185.8c6.6,18.3,14.5,36.1,23.5,53.4
		c28.7,54.9,69.3,99.6,118.7,136.6c6.5,4.9,13.4,9.3,20.2,13.9c35.4,18.7,72.5,30.4,113.1,31.5c54,1.5,106.5-10.4,159.8-14.3
		c44.6-3.2,89.4-9.9,134,1.3c20.9,5.3,38.6,14.9,61.3,25.9c-25.9-62.5-61.1-118-109.4-161.2c-73.5-65.8-156.8-82.2-252.1-80
		c12.6-1.8,25-1.5,37.3-1.8c50.3-1.4,99.3,4.5,145.7,25.2c34.8,15.5,49.5,20.3,92.1,65.5c65.7,69.9,76.5,111.9,80.1,118.9
		c3,5.6,7.9,16,13.7,18.8c3.9-9.2,2.9-21,3.4-30.8c2.4-49.9,19.3-96.6,51.3-135.3c4.9-6,9.5-12.6,15.4-17.7
		c3.2-2.8,6.8-5.2,10.6-7.3c3.6-2,7.9-4.7,12-5.7c-1.7,3.1-5.2,5.9-7.7,8.4c-3.1,3.1-6.6,6-9.7,9.1c-6.1,6-11.8,12.5-17,19.3
		c-10.5,13.6-19.1,28.6-26,44.3c-4.5,10.4-8.3,21.2-11.3,32.2c-3.9,14.3-6.6,28.9-8.2,43.7c-0.9,7.9-2,15.8-2.1,23.7
		c-0.1,4.1,0.1,8.2,0.8,12.2c0.3,2,1.3,10.5,3.3,11.4c3.2,1.3,16.2-11.9,18.7-14.1c6-5.4,11.9-10.9,18.2-16
		c12.6-10.1,26.8-18.5,41.1-26.2c32.7-17.6,68.3-27.9,102.1-42.8c47.2-20.8,76.1-55.8,92.4-103.5
		C1469,494.4,1472.7,453,1468.4,411.1z M1261.9,532.3"/>
	<linearGradient id="SVGID_3_" gradientUnits="userSpaceOnUse" x1="490.1782" y1="883.6538" x2="1304.6698" y2="883.6538">
		<stop  offset="0" style="stop-color:#58A244"/>
		<stop  offset="1" style="stop-color:#89BD3E"/>
	</linearGradient>
	<path fill="url(#SVGID_3_)" d="M490.2,743.9c23.3,20.6,43.9,43.3,68.7,62.1c29.8,22.5,59.7,43.6,94.3,58.4
		c65.7,28.2,133.8,39.7,204.8,33c50.7-4.8,98-22.1,143.9-43.8c46.3-22,87.6-51.2,125.7-85.1c25.7-22.9,75.4-21.7,99.6,2.3
		c24.2,24,48.3,48.2,72.7,71.9c6,5.8,6.9,9,0.3,16c-69.4,73.2-156.3,127.2-254.7,151.1c-35,8.5-70.9,13.1-106.9,13.7
		c-102.9,1.5-205.5-30.6-289.2-90.4c-1.3-0.9-2.6-1.9-3.9-2.8c-25-18.1-48.5-38.2-69.8-60.9C540.4,832,514.2,788.7,490.2,743.9z"/>
	<linearGradient id="SVGID_4_" gradientUnits="userSpaceOnUse" x1="565.1782" y1="182.9924" x2="1303.8181" y2="182.9924">
		<stop  offset="0" style="stop-color:#58A244"/>
		<stop  offset="1" style="stop-color:#89BD3E"/>
	</linearGradient>
	<path fill="url(#SVGID_4_)" d="M565.2,227.3c4.4-14.1,131.7-115.8,195.9-139c81.6-29.5,165.4-40.3,252.4-24.3
		c55.9,10.2,109.1,26.1,158.4,54.3c46,26.4,88,58,124.6,96.7c8.3,8.8,11.4,12.6-0.2,22.1c-18.7,15.3-34.8,33.8-52,50.9
		c-29.1,28.9-72.4,28.6-100.9,0c-66.2-66.4-147.4-113.3-239.6-133.4c-15.6-3.4-31.3-6.1-47.1-8.2c-57.8-7.7-114-1.3-169.6,16.1
		C642.2,176.3,602.9,199.4,565.2,227.3z"/>
	<path fill="#79B243" d="M1435,347.6c0-0.2-0.1-0.4-0.1-0.5c0.2,0.1,0.3,0.2,0.5,0.4C1435.3,347.4,1435,347.6,1435,347.6z"/>
	<linearGradient id="SVGID_5_" gradientUnits="userSpaceOnUse" x1="500.9677" y1="515.4739" x2="1436.4951" y2="515.4739">
		<stop  offset="0" style="stop-color:#58A244"/>
		<stop  offset="0.5401" style="stop-color:#89BD3E"/>
		<stop  offset="0.9733" style="stop-color:#5CA546"/>
	</linearGradient>
	<path fill="url(#SVGID_5_)" d="M501,310.4c0,0,67.3,201.3,360.1,194.6c0,0,178.5-28.9,296.6,211.9c1.5,3.1,4.2,7.3,6.8,10.1
		c1.4,1.5,2.7,2.3,3.8,3c0,0,2.9-4.5,3-16c0.3-30.4,10.4-94.7,44.4-140.9c12.2-16.6,26.9-31.8,46.2-40.9c0,0,170.1-72.1,174.6-231.2
		c0,0-26.9,55.9-87.2,90.8c-20.6,11.9-39.7,19.1-74.2,27.2c0,0-88.5,18.2-136.5,96.9c0,0-18.8-46.4-59-88.8
		c-35-36.9-86.4-70.6-153.1-71.4c-63.2-0.7-124.7,3.8-186.9,7.6C660.8,368.3,583.6,367.4,501,310.4z"/>
</g>
</svg>
